<svg width="50" height="60" viewBox="0 0 50 60" fill="none" xmlns="http://www.w3.org/2000/svg">
<path d="M2.46885 59.6965C1.49109 59.291 0.708984 58.5089 0.303522 57.5312L0.765385 57.3396C0.594542 56.9276 0.5 56.4755 0.5 56V54.5556H0V51.6667H0.5V48.7778H0V45.8889H0.5V43H0V40.1111H0.5V37.2222H0V34.3333H0.5V31.4444H0V28.5556H0.5V25.6667H0V22.7778H0.5V19.8889H0V17H0.5V14.1111H0V11.2222H0.5V8.33333H0V5.44444H0.5V4C0.5 3.52451 0.594542 3.07236 0.765385 2.66038L0.303522 2.46885C0.708983 1.49109 1.49109 0.708984 2.46885 0.303522L2.66038 0.765385C3.07236 0.594543 3.52451 0.5 4 0.5H5.5V0H8.5V0.5H11.5V0H14.5V0.5H17.5V0H20.5V0.5H23.5V0H26.5V0.5H29.5V0H32.5V0.5H35.5V0H38.5V0.5H41.5V0H44.5V0.5H46C46.4755 0.5 46.9276 0.594542 47.3396 0.765385L47.5312 0.303522C48.5089 0.708984 49.291 1.49109 49.6965 2.46885L49.2346 2.66038C49.4055 3.07236 49.5 3.52451 49.5 4V5.44444H50V8.33333H49.5V11.2222H50V14.1111H49.5V17H50V19.8889H49.5V22.7778H50V25.6667H49.5V28.5556H50V31.4444H49.5V34.3333H50V37.2222H49.5V40.1111H50V43H49.5V45.8889H50V48.7778H49.5V51.6667H50V54.5556H49.5V56C49.5 56.4755 49.4055 56.9276 49.2346 57.3396L49.6965 57.5312C49.291 58.5089 48.5089 59.291 47.5312 59.6965L47.3396 59.2346C46.9276 59.4055 46.4755 59.5 46 59.5H44.5V60H41.5V59.5H38.5V60H35.5V59.5H32.5V60H29.5V59.5H26.5V60H23.5V59.5H20.5V60H17.5V59.5H14.5V60H11.5V59.5H8.5V60H5.5V59.5H4C3.52451 59.5 3.07236 59.4055 2.66038 59.2346L2.46885 59.6965Z" stroke="#266CC2" stroke-dasharray="3 3"/>
<rect x="24.4032" y="11" width="1.2" height="12" fill="#266CC2"/>
<path d="M31 16.4265V17.6265L19 17.6265V16.4265L31 16.4265Z" fill="#266CC2"/>
<path d="M20.7515 40L20.1099 38.2158H17.6533L17.0249 40H15.9175L18.3213 33.5488H19.4639L21.8677 40H20.7515ZM19.833 37.3105L19.231 35.5615C19.187 35.4443 19.1255 35.2598 19.0464 35.0078C18.9702 34.7559 18.9175 34.5713 18.8882 34.4541C18.8091 34.8145 18.6934 35.2085 18.541 35.6362L17.9609 37.3105H19.833ZM24.2451 40.0879C23.6387 40.0879 23.1655 39.8682 22.8257 39.4287C22.4858 38.9893 22.3159 38.3726 22.3159 37.5786C22.3159 36.7817 22.4873 36.1621 22.8301 35.7197C23.1758 35.2744 23.6533 35.0518 24.2627 35.0518C24.9014 35.0518 25.3877 35.2876 25.7217 35.7593H25.7744C25.7246 35.4106 25.6997 35.1353 25.6997 34.9331V33.1621H26.7368V40H25.9282L25.748 39.3628H25.6997C25.3687 39.8462 24.8838 40.0879 24.2451 40.0879ZM24.522 39.2529C24.9468 39.2529 25.2559 39.1343 25.4492 38.897C25.6426 38.6567 25.7422 38.2686 25.748 37.7324V37.5874C25.748 36.9751 25.6484 36.54 25.4492 36.2822C25.25 36.0244 24.938 35.8955 24.5132 35.8955C24.1499 35.8955 23.8701 36.0435 23.6738 36.3394C23.4775 36.6323 23.3794 37.0513 23.3794 37.5962C23.3794 38.1353 23.4746 38.5469 23.665 38.8311C23.8555 39.1123 24.1411 39.2529 24.522 39.2529ZM29.8525 40.0879C29.2461 40.0879 28.7729 39.8682 28.4331 39.4287C28.0933 38.9893 27.9233 38.3726 27.9233 37.5786C27.9233 36.7817 28.0947 36.1621 28.4375 35.7197C28.7832 35.2744 29.2607 35.0518 29.8701 35.0518C30.5088 35.0518 30.9951 35.2876 31.3291 35.7593H31.3818C31.332 35.4106 31.3071 35.1353 31.3071 34.9331V33.1621H32.3442V40H31.5356L31.3555 39.3628H31.3071C30.9761 39.8462 30.4912 40.0879 29.8525 40.0879ZM30.1294 39.2529C30.5542 39.2529 30.8633 39.1343 31.0566 38.897C31.25 38.6567 31.3496 38.2686 31.3555 37.7324V37.5874C31.3555 36.9751 31.2559 36.54 31.0566 36.2822C30.8574 36.0244 30.5454 35.8955 30.1206 35.8955C29.7573 35.8955 29.4775 36.0435 29.2812 36.3394C29.085 36.6323 28.9868 37.0513 28.9868 37.5962C28.9868 38.1353 29.082 38.5469 29.2725 38.8311C29.4629 39.1123 29.7485 39.2529 30.1294 39.2529ZM19.1255 47.5176C19.1255 48.1885 18.9058 48.7026 18.4663 49.0601C18.0269 49.4175 17.4014 49.5962 16.5898 49.5962H15.9219V52H14.8716V45.5752H16.7217C17.5244 45.5752 18.125 45.7393 18.5234 46.0674C18.9248 46.3955 19.1255 46.8789 19.1255 47.5176ZM15.9219 48.7129H16.48C17.019 48.7129 17.4146 48.6191 17.6665 48.4316C17.9185 48.2441 18.0444 47.9512 18.0444 47.5527C18.0444 47.1836 17.9316 46.9082 17.7061 46.7266C17.4805 46.5449 17.1289 46.4541 16.6514 46.4541H15.9219V48.7129ZM23.3398 52L23.1333 51.3232H23.0981C22.8638 51.6191 22.6279 51.8213 22.3906 51.9297C22.1533 52.0352 21.8486 52.0879 21.4766 52.0879C20.999 52.0879 20.6255 51.959 20.356 51.7012C20.0894 51.4434 19.9561 51.0786 19.9561 50.6069C19.9561 50.106 20.1421 49.728 20.5142 49.4731C20.8862 49.2183 21.4531 49.0791 22.2148 49.0557L23.0542 49.0293V48.77C23.0542 48.4595 22.981 48.228 22.8345 48.0757C22.6909 47.9204 22.4668 47.8428 22.1621 47.8428C21.9131 47.8428 21.6743 47.8794 21.4458 47.9526C21.2173 48.0259 20.9976 48.1123 20.7866 48.2119L20.4526 47.4736C20.7163 47.3359 21.0049 47.2319 21.3184 47.1616C21.6318 47.0884 21.9277 47.0518 22.2061 47.0518C22.8242 47.0518 23.29 47.1865 23.6035 47.4561C23.9199 47.7256 24.0781 48.1489 24.0781 48.7261V52H23.3398ZM21.8018 51.2969C22.1768 51.2969 22.4771 51.1929 22.7026 50.9849C22.9312 50.7739 23.0454 50.4795 23.0454 50.1016V49.6797L22.4214 49.7061C21.9351 49.7236 21.5806 49.8057 21.3579 49.9521C21.1382 50.0957 21.0283 50.3169 21.0283 50.6157C21.0283 50.8325 21.0928 51.001 21.2217 51.1211C21.3506 51.2383 21.5439 51.2969 21.8018 51.2969ZM29.624 47.1396V47.7065L28.7935 47.8604C28.8696 47.9629 28.9326 48.0889 28.9824 48.2383C29.0322 48.3877 29.0571 48.5459 29.0571 48.7129C29.0571 49.2139 28.8843 49.6079 28.5386 49.895C28.1929 50.1821 27.7168 50.3257 27.1104 50.3257C26.9551 50.3257 26.8145 50.314 26.6885 50.2905C26.4658 50.4282 26.3545 50.5894 26.3545 50.7739C26.3545 50.8853 26.4058 50.9688 26.5083 51.0244C26.6138 51.0801 26.8057 51.1079 27.084 51.1079H27.9321C28.4683 51.1079 28.8755 51.2222 29.1538 51.4507C29.4321 51.6792 29.5713 52.0088 29.5713 52.4395C29.5713 52.9902 29.3442 53.415 28.8901 53.7139C28.436 54.0127 27.7798 54.1621 26.9214 54.1621C26.2593 54.1621 25.7539 54.0449 25.4053 53.8105C25.0566 53.5762 24.8823 53.2422 24.8823 52.8086C24.8823 52.5098 24.9761 52.2578 25.1636 52.0527C25.354 51.8506 25.6191 51.71 25.959 51.6309C25.8213 51.5723 25.707 51.4785 25.6162 51.3496C25.5283 51.2178 25.4844 51.0801 25.4844 50.9365C25.4844 50.7549 25.5356 50.6011 25.6382 50.4751C25.7407 50.3491 25.8931 50.2246 26.0952 50.1016C25.8433 49.9932 25.6382 49.8174 25.48 49.5742C25.3247 49.3281 25.2471 49.041 25.2471 48.7129C25.2471 48.1855 25.4126 47.7769 25.7437 47.4868C26.0776 47.1968 26.5522 47.0518 27.1675 47.0518C27.3052 47.0518 27.4487 47.062 27.5981 47.0825C27.7505 47.1001 27.8647 47.1191 27.9409 47.1396H29.624ZM25.8052 52.7559C25.8052 52.9785 25.9048 53.1499 26.104 53.27C26.3062 53.3901 26.5889 53.4502 26.9521 53.4502C27.5146 53.4502 27.9336 53.3696 28.209 53.2085C28.4844 53.0474 28.6221 52.8335 28.6221 52.5669C28.6221 52.356 28.5459 52.2051 28.3936 52.1143C28.2441 52.0264 27.9644 51.9824 27.5542 51.9824H26.772C26.4761 51.9824 26.2402 52.0513 26.0645 52.189C25.8916 52.3296 25.8052 52.5186 25.8052 52.7559ZM26.249 48.7129C26.249 49.0176 26.3267 49.252 26.4819 49.416C26.6401 49.5801 26.8657 49.6621 27.1587 49.6621C27.7563 49.6621 28.0552 49.3428 28.0552 48.7041C28.0552 48.3877 27.9805 48.1445 27.8311 47.9746C27.6846 47.8018 27.4604 47.7153 27.1587 47.7153C26.8599 47.7153 26.6328 47.8003 26.4775 47.9702C26.3252 48.1401 26.249 48.3877 26.249 48.7129ZM32.6519 52.0879C31.896 52.0879 31.3042 51.8682 30.8765 51.4287C30.4517 50.9863 30.2393 50.3784 30.2393 49.605C30.2393 48.811 30.437 48.187 30.8325 47.7329C31.228 47.2788 31.7715 47.0518 32.4629 47.0518C33.1045 47.0518 33.6113 47.2466 33.9834 47.6362C34.3555 48.0259 34.5415 48.562 34.5415 49.2446V49.8027H31.3027C31.3174 50.2744 31.4448 50.6377 31.6851 50.8926C31.9253 51.1445 32.2637 51.2705 32.7002 51.2705C32.9873 51.2705 33.2539 51.2441 33.5 51.1914C33.749 51.1357 34.0156 51.0449 34.2998 50.9189V51.7583C34.0479 51.8784 33.793 51.9634 33.5352 52.0132C33.2773 52.063 32.9829 52.0879 32.6519 52.0879ZM32.4629 47.834C32.1348 47.834 31.8711 47.938 31.6719 48.146C31.4756 48.354 31.3584 48.6572 31.3203 49.0557H33.5264C33.5205 48.6543 33.4238 48.3511 33.2363 48.146C33.0488 47.938 32.791 47.834 32.4629 47.834Z" fill="#266CC2"/>
</svg>
