<svg width="17" height="16" viewBox="0 0 17 16" fill="none" xmlns="http://www.w3.org/2000/svg">
<path d="M5.13637 15H2.5909C1.71227 15 1 14.2877 1 13.4091V10.8636C1.00257 9.96474 1.3595 9.10315 1.99335 8.46581L8.09354 2.36565C8.21564 2.23926 8.41704 2.23574 8.54346 2.35783C8.66988 2.47993 8.67337 2.68134 8.55128 2.80775C8.54871 2.81041 8.54612 2.813 8.54346 2.81557L2.44327 8.91573C1.92835 9.43348 1.63841 10.1334 1.63635 10.8636V13.4091C1.63635 13.9362 2.06372 14.3636 2.5909 14.3636H5.13634C5.86737 14.3656 6.56878 14.0751 7.08423 13.5567L15.0547 5.58625C15.83 4.81048 15.83 3.55313 15.0547 2.77736L14.4953 2.21799C13.7088 1.46892 12.4729 1.46892 11.6864 2.21799L4.53882 9.36565C4.31098 9.59462 4.18269 9.90425 4.18182 10.2273V11.5C4.18182 11.6757 4.32429 11.8182 4.50001 11.8182H5.77272C6.09571 11.8173 6.40534 11.689 6.63434 11.4612L11.9117 6.18386C12.0338 6.05747 12.2352 6.05395 12.3616 6.17604C12.488 6.29813 12.4915 6.49954 12.3694 6.62596C12.3669 6.62861 12.3643 6.63121 12.3616 6.63377L7.08426 11.9111C6.7357 12.2579 6.2644 12.4532 5.77272 12.4546H4.49998C3.97281 12.4546 3.54544 12.0272 3.54544 11.5V10.2273C3.54669 9.73556 3.74199 9.26423 4.0889 8.91573L11.2365 1.76811C12.2607 0.74397 13.9211 0.74397 14.9452 1.76808C14.9452 1.76808 14.9452 1.76808 14.9453 1.76811L15.5046 2.32747C16.5288 3.3516 16.5288 5.01203 15.5047 6.03617C15.5047 6.03617 15.5047 6.03617 15.5046 6.0362L7.53418 14.0066C6.89941 14.6443 6.03614 15.002 5.13637 15Z" fill="#464646" stroke="#464646" stroke-width="0.3"/>
</svg>
