<svg width="52" height="44" viewBox="0 0 52 44" fill="none" xmlns="http://www.w3.org/2000/svg">
<path d="M51 5C51 2.79086 49.2091 1 47 1H5C2.79086 1 1 2.79086 1 5V21C1 23.2091 2.79086 25 5 25H47C49.2091 25 51 23.2091 51 21V5Z" fill="white" stroke="#266CC2"/>
<path d="M9.09961 41H7.94238V33.8613H11.9707V34.8477H9.09961V37.0791H11.79V38.0703H9.09961V41ZM17.3027 41H13.2646V33.8613H17.3027V34.8477H14.4316V36.791H17.1221V37.7676H14.4316V40.0088H17.3027V41ZM21.9365 41L19.8662 35.0381H19.8271C19.8825 35.9235 19.9102 36.7536 19.9102 37.5283V41H18.8506V33.8613H20.4961L22.4785 39.54H22.5078L24.5488 33.8613H26.1992V41H25.0762V37.4697C25.0762 37.1149 25.0843 36.6527 25.1006 36.083C25.1201 35.5133 25.1364 35.1683 25.1494 35.0479H25.1104L22.9668 41H21.9365ZM32.5078 41L31.7949 39.0176H29.0654L28.3672 41H27.1367L29.8076 33.832H31.0771L33.748 41H32.5078ZM31.4873 38.0117L30.8184 36.0684C30.7695 35.9382 30.7012 35.7331 30.6133 35.4531C30.5286 35.1732 30.4701 34.9681 30.4375 34.8379C30.3496 35.2383 30.221 35.6761 30.0518 36.1514L29.4072 38.0117H31.4873ZM34.6904 41V33.8613H35.8574V39.999H38.8799V41H34.6904ZM44.1484 41H40.1104V33.8613H44.1484V34.8477H41.2773V36.791H43.9678V37.7676H41.2773V40.0088H44.1484V41Z" fill="#266CC2"/>
<path d="M26.4823 3.00002C23.0276 3.00967 20.25 5.85576 20.25 9.31052V13.9375C20.25 14.3519 20.4146 14.7493 20.7076 15.0424C21.0007 15.3354 21.3981 15.5 21.8125 15.5H24.099C24.1681 15.5 24.2365 15.4864 24.3003 15.46C24.3641 15.4335 24.4221 15.3948 24.4709 15.3459C24.5198 15.2971 24.5585 15.2391 24.585 15.1753C24.6114 15.1115 24.625 15.0431 24.625 14.974C24.6246 14.8876 24.6032 14.8027 24.5625 14.7265C24.5218 14.6504 24.4631 14.5853 24.3915 14.537C23.8859 14.1934 23.472 13.7313 23.1859 13.1911C22.8998 12.6508 22.7502 12.0488 22.75 11.4375V8.62502C22.5843 8.62482 22.4254 8.55891 22.3083 8.44174C22.1911 8.32458 22.1252 8.16572 22.125 8.00002V7.07322C22.124 6.99258 22.1534 6.91452 22.2075 6.8547C22.2616 6.79488 22.3363 6.75773 22.4167 6.75068C22.4594 6.74783 22.5022 6.75378 22.5425 6.76816C22.5828 6.78254 22.6197 6.80505 22.651 6.83429C22.6822 6.86352 22.7072 6.89887 22.7242 6.93813C22.7412 6.97739 22.75 7.01973 22.75 7.06252V7.68752C22.75 7.7704 22.7829 7.84988 22.8415 7.90849C22.9001 7.96709 22.9796 8.00002 23.0625 8.00002H29.9375C30.0204 8.00002 30.0999 7.96709 30.1585 7.90849C30.2171 7.84988 30.25 7.7704 30.25 7.68752V7.07322C30.249 6.99259 30.2784 6.91454 30.3325 6.85472C30.3866 6.79491 30.4613 6.75774 30.5416 6.75068C30.5843 6.74783 30.6272 6.75377 30.6675 6.76815C30.7078 6.78253 30.7447 6.80503 30.776 6.83427C30.8072 6.86351 30.8321 6.89885 30.8492 6.93812C30.8662 6.97738 30.875 7.01972 30.875 7.06252V8.00002C30.875 8.16578 30.8091 8.32475 30.6919 8.44196C30.5747 8.55917 30.4157 8.62502 30.25 8.62502H26.1982C26.1175 8.62398 26.0395 8.65347 25.9797 8.70757C25.9199 8.76167 25.8827 8.83639 25.8757 8.91674C25.8728 8.95943 25.8788 9.00226 25.8931 9.04256C25.9075 9.08286 25.93 9.11978 25.9593 9.15102C25.9885 9.18227 26.0239 9.20718 26.0631 9.22421C26.1024 9.24124 26.1447 9.25002 26.1875 9.25002H29.625C29.7907 9.25002 29.9497 9.31587 30.0669 9.43308C30.1841 9.55029 30.25 9.70926 30.25 9.87502V11.4375C30.2498 12.0488 30.1002 12.6508 29.8141 13.1911C29.528 13.7313 29.1141 14.1934 28.6085 14.537C28.5369 14.5853 28.4782 14.6504 28.4375 14.7265C28.3968 14.8027 28.3753 14.8876 28.375 14.974C28.375 15.0431 28.3886 15.1115 28.415 15.1753C28.4415 15.2391 28.4802 15.2971 28.5291 15.3459C28.5779 15.3948 28.6359 15.4335 28.6997 15.46C28.7635 15.4864 28.8319 15.5 28.901 15.5H31.1875C31.6019 15.5 31.9993 15.3354 32.2923 15.0424C32.5854 14.7493 32.75 14.3519 32.75 13.9375V9.25002C32.75 5.79787 29.9367 2.99045 26.4823 3.00002Z" fill="#266CC2"/>
<path d="M24.9896 9.25H23.6354C23.4916 9.25 23.375 9.11008 23.375 8.9375C23.375 8.76492 23.4916 8.625 23.6354 8.625H24.9896C25.1334 8.625 25.25 8.76492 25.25 8.9375C25.25 9.11008 25.1334 9.25 24.9896 9.25Z" fill="#266CC2"/>
<path d="M33.3814 17.6207C32.9804 17.1221 32.422 16.7746 31.7976 16.635L29.3803 16.0978C29.3346 16.0876 29.2872 16.0879 29.2416 16.0985C29.196 16.1091 29.1534 16.1298 29.1169 16.1591C29.0804 16.1884 29.051 16.2255 29.0307 16.2677C29.0105 16.3099 29 16.3561 29 16.4028V17.0626C29 17.6695 28.5885 18.2751 27.7769 18.8625C27.4154 19.1217 27.0307 19.3469 26.6277 19.5353L26.5 19.5925L26.3723 19.5353C25.9693 19.347 25.5845 19.1218 25.223 18.8625C24.4115 18.2751 24 17.6695 24 17.0626V16.4029C24 16.3561 23.9895 16.3099 23.9692 16.2677C23.949 16.2255 23.9195 16.1884 23.883 16.1592C23.8465 16.1299 23.8039 16.1092 23.7584 16.0986C23.7128 16.0879 23.6654 16.0877 23.6197 16.0978L21.2024 16.635C20.5777 16.7739 20.019 17.1215 19.6186 17.6207C19.2182 18.1199 19 18.7406 19 19.3805V23.0001H20.875C20.9579 23.0001 21.0374 22.9672 21.096 22.9086C21.1546 22.85 21.1875 22.7705 21.1875 22.6876V20.5108C21.1865 20.4302 21.2159 20.3521 21.2701 20.2923C21.3242 20.2325 21.3989 20.1953 21.4792 20.1883C21.5219 20.1854 21.5647 20.1914 21.605 20.2058C21.6453 20.2201 21.6823 20.2427 21.7135 20.2719C21.7448 20.3011 21.7697 20.3365 21.7867 20.3757C21.8037 20.415 21.8125 20.4573 21.8125 20.5001V22.6876C21.8125 22.7705 21.8454 22.85 21.904 22.9086C21.9626 22.9672 22.0421 23.0001 22.125 23.0001H30.875C30.9579 23.0001 31.0374 22.9672 31.096 22.9086C31.1546 22.85 31.1875 22.7705 31.1875 22.6876V20.5108C31.1864 20.4302 31.2159 20.3521 31.27 20.2923C31.3241 20.2325 31.3988 20.1953 31.4792 20.1883C31.5219 20.1854 31.5647 20.1914 31.605 20.2058C31.6453 20.2201 31.6822 20.2426 31.7135 20.2719C31.7447 20.3011 31.7696 20.3365 31.7867 20.3757C31.8037 20.415 31.8125 20.4573 31.8125 20.5001V22.6876C31.8125 22.7705 31.8454 22.85 31.904 22.9086C31.9626 22.9672 32.0421 23.0001 32.125 23.0001H34V19.3805C33.9992 18.7408 33.7811 18.1202 33.3814 17.6207Z" fill="#266CC2"/>
</svg>
