<svg width="12" height="16" viewBox="0 0 12 16" fill="none" xmlns="http://www.w3.org/2000/svg">
<path d="M5.98584 1.95167e-05C3.22206 0.00773826 1 2.28461 1 5.04842V8.75001C1 9.08153 1.1317 9.39947 1.36612 9.63389C1.60054 9.86831 1.91848 10 2.25 10H4.07918C4.13445 10 4.18917 9.98912 4.24022 9.96798C4.29128 9.94683 4.33767 9.91583 4.37674 9.87675C4.41582 9.83768 4.44682 9.79129 4.46796 9.74023C4.48911 9.68918 4.5 9.63446 4.5 9.5792C4.49971 9.51011 4.48253 9.44215 4.44998 9.38122C4.41742 9.32029 4.37046 9.26824 4.31318 9.2296C3.90872 8.95469 3.57762 8.58503 3.34874 8.15285C3.11985 7.72066 3.00013 7.23906 3 6.75001V4.50001C2.86744 4.49986 2.74035 4.44713 2.64662 4.35339C2.55288 4.25966 2.50016 4.13258 2.5 4.00001V3.25858C2.49916 3.19406 2.52275 3.13162 2.56602 3.08376C2.6093 3.0359 2.66907 3.00618 2.73334 3.00055C2.7675 2.99827 2.80177 3.00303 2.83401 3.01453C2.86625 3.02604 2.89579 3.04404 2.92079 3.06743C2.94579 3.09082 2.96572 3.11909 2.97935 3.1505C2.99297 3.18191 3 3.21578 3 3.25002V3.75002C3 3.81632 3.02634 3.87991 3.07322 3.92679C3.1201 3.97368 3.18369 4.00001 3.25 4.00001H8.74999C8.8163 4.00001 8.87988 3.97368 8.92677 3.92679C8.97365 3.87991 8.99999 3.81632 8.99999 3.75002V3.25858C8.99916 3.19407 9.02274 3.13163 9.06601 3.08378C9.10928 3.03592 9.16904 3.00619 9.2333 3.00055C9.26747 2.99826 9.30173 3.00302 9.33398 3.01452C9.36623 3.02602 9.39577 3.04403 9.42078 3.06742C9.44578 3.09081 9.46571 3.11908 9.47934 3.15049C9.49296 3.1819 9.49999 3.21578 9.49999 3.25002V4.00001C9.49999 4.13262 9.44731 4.2598 9.35354 4.35357C9.25978 4.44734 9.1326 4.50001 8.99999 4.50001H5.75856C5.69404 4.49918 5.63159 4.52278 5.58374 4.56606C5.53588 4.60934 5.50616 4.66911 5.50053 4.73339C5.49825 4.76755 5.50301 4.80181 5.51452 4.83405C5.52603 4.86629 5.54403 4.89582 5.56742 4.92082C5.59081 4.94582 5.61908 4.96574 5.65049 4.97937C5.68189 4.99299 5.71576 5.00002 5.74999 5.00001H8.49999C8.6326 5.00001 8.75978 5.05269 8.85354 5.14646C8.94731 5.24023 8.99999 5.36741 8.99999 5.50001V6.75001C8.99986 7.23907 8.88014 7.72067 8.65125 8.15286C8.42237 8.58505 8.09127 8.95471 7.6868 9.22963C7.62953 9.26826 7.58257 9.3203 7.55001 9.38123C7.51745 9.44215 7.50028 9.51012 7.49999 9.5792C7.49999 9.63446 7.51088 9.68918 7.53202 9.74023C7.55317 9.79129 7.58417 9.83768 7.62325 9.87675C7.66232 9.91583 7.70871 9.94683 7.75977 9.96798C7.81082 9.98912 7.86554 10 7.9208 10H9.74999C10.0815 10 10.3995 9.86831 10.6339 9.63389C10.8683 9.39947 11 9.08153 11 8.75001V5.00001C11 2.2383 8.74933 -0.00763672 5.98584 1.95167e-05Z" fill="#666666"/>
<path d="M4.79165 5H3.70834C3.59328 5 3.5 4.88806 3.5 4.75C3.5 4.61194 3.59328 4.5 3.70834 4.5H4.79165C4.90672 4.5 5 4.61194 5 4.75C5 4.88806 4.90672 5 4.79165 5Z" fill="#666666"/>
<path d="M11.5051 11.6965C11.1843 11.2976 10.7376 11.0196 10.2381 10.9079L8.30421 10.4781C8.26766 10.47 8.22976 10.4702 8.1933 10.4787C8.15684 10.4872 8.12275 10.5037 8.09355 10.5272C8.06435 10.5506 8.04078 10.5803 8.02459 10.614C8.0084 10.6478 7.99999 10.6847 7.99999 10.7222V11.25C7.99999 11.7355 7.6708 12.22 7.02155 12.6899C6.73235 12.8973 6.42458 13.0775 6.10218 13.2281L5.99999 13.2739L5.89781 13.2282C5.5754 13.0775 5.26763 12.8973 4.97843 12.6899C4.32918 12.22 4 11.7355 4 11.25V10.7222C4 10.6848 3.99159 10.6478 3.9754 10.6141C3.95921 10.5803 3.93564 10.5507 3.90644 10.5272C3.87724 10.5038 3.84315 10.4872 3.80669 10.4787C3.77023 10.4703 3.73232 10.4701 3.69578 10.4782L1.7619 10.9079C1.26217 11.019 0.815239 11.2971 0.49491 11.6965C0.174581 12.0958 3.31879e-06 12.5924 0 13.1043V16H1.5C1.5663 16 1.62989 15.9736 1.67677 15.9268C1.72366 15.8799 1.75 15.8163 1.75 15.75V14.0086C1.74917 13.944 1.77276 13.8816 1.81604 13.8337C1.85932 13.7859 1.9191 13.7562 1.98337 13.7505C2.01753 13.7482 2.05179 13.753 2.08403 13.7645C2.11627 13.776 2.14581 13.794 2.1708 13.8174C2.1958 13.8408 2.21573 13.8691 2.22935 13.9005C2.24297 13.9319 2.25 13.9658 2.25 14V15.75C2.25 15.8163 2.27634 15.8799 2.32322 15.9268C2.3701 15.9736 2.43369 16 2.5 16H9.49999C9.56629 16 9.62988 15.9736 9.67677 15.9268C9.72365 15.8799 9.74999 15.8163 9.74999 15.75V14.0086C9.74915 13.944 9.77274 13.8816 9.81601 13.8337C9.85929 13.7859 9.91906 13.7562 9.98333 13.7505C10.0175 13.7482 10.0518 13.753 10.084 13.7645C10.1162 13.776 10.1458 13.794 10.1708 13.8174C10.1958 13.8408 10.2157 13.8691 10.2293 13.9005C10.243 13.9319 10.25 13.9658 10.25 14V15.75C10.25 15.8163 10.2763 15.8799 10.3232 15.9268C10.3701 15.9736 10.4337 16 10.5 16H12V13.1043C11.9994 12.5925 11.8249 12.0961 11.5051 11.6965Z" fill="#666666"/>
</svg>
