<svg width="22" height="22" viewBox="0 0 22 22" fill="none" xmlns="http://www.w3.org/2000/svg">
<path d="M20.875 1.12768C20.7755 1.02769 20.6419 0.989965 20.5119 1.00224H1.4995C1.36951 0.99042 1.23634 1.02814 1.13681 1.12768C1.0959 1.16859 1.06636 1.21631 1.04454 1.26676C1.01773 1.32494 1 1.38857 1 1.45674C1 1.58946 1.05863 1.70627 1.14953 1.78898L7.81757 11.1241V20.515C7.81394 20.5841 7.82439 20.6532 7.85257 20.7178C7.92029 20.8832 8.0821 21 8.27208 21C8.40979 21 8.52887 20.9355 8.6125 20.8391L14.0575 15.4064C14.1606 15.3032 14.197 15.1642 14.1806 15.0301V11.1263L20.875 1.77126C21.0532 1.59355 21.0532 1.30539 20.875 1.12768ZM13.4007 10.6714C13.3057 10.7664 13.2653 10.8918 13.2716 11.0163V14.9037L8.72658 19.4383V11.0163C8.73295 10.8923 8.6925 10.7664 8.5975 10.6714L2.34034 1.91125H19.6697L13.4007 10.6714Z" fill="#266CC2" stroke="#266CC2" stroke-width="0.4"/>
</svg>
