<svg width="24" height="24" viewBox="0 0 24 24" fill="none" xmlns="http://www.w3.org/2000/svg">
<path d="M12 0C5.38317 0 0 5.38317 0 12C0 18.6168 5.38317 24 12 24C18.6168 24 24 18.6168 24 12C24 5.38317 18.6168 0 12 0ZM12 22.7505C6.07214 22.7505 1.24945 17.9279 1.24945 12C1.24945 6.07214 6.07214 1.24945 12 1.24945C17.9279 1.24945 22.7505 6.07214 22.7505 12C22.7505 17.9279 17.9279 22.7505 12 22.7505Z" fill="#404040"/>
<path d="M15.8775 5.39466C15.5802 5.21973 15.1972 5.31915 15.0223 5.61652C14.8474 5.9139 14.9467 6.29682 15.2442 6.47171C17.1964 7.61977 18.4091 9.7381 18.4091 12C18.4091 15.5341 15.534 18.4092 11.9999 18.4092C8.46584 18.4092 5.59071 15.534 5.59071 12C5.59071 9.7381 6.80337 7.61977 8.75557 6.47171C9.053 6.29687 9.15232 5.91395 8.97743 5.61652C8.80259 5.3191 8.41972 5.21987 8.12225 5.39466C5.79007 6.76627 4.34131 9.29729 4.34131 12C4.34131 16.223 7.77692 19.6586 11.9999 19.6586C16.2229 19.6586 19.6586 16.223 19.6585 12C19.6585 9.29734 18.2097 6.76627 15.8775 5.39466Z" fill="#404040"/>
<path d="M12.0002 3.50769C11.6552 3.50769 11.3755 3.78744 11.3755 4.13244V11.9999C11.3755 12.345 11.6552 12.6247 12.0002 12.6247C12.3453 12.6247 12.625 12.345 12.625 11.9999V4.13244C12.625 3.78749 12.3453 3.50769 12.0002 3.50769Z" fill="#404040"/>
</svg>
