<svg width="52" height="44" viewBox="0 0 52 44" fill="none" xmlns="http://www.w3.org/2000/svg">
<path d="M1 5C1 2.79086 2.79086 1 5 1H47C49.2091 1 51 2.79086 51 5V21C51 23.2091 49.2091 25 47 25H5C2.79086 25 1 23.2091 1 21V5Z" fill="white" stroke="#266CC2"/>
<path d="M33.0816 16.1236L29.387 15.5001C29.3538 15.4945 29.3197 15.496 29.2871 15.5047C29.2545 15.5134 29.2241 15.5289 29.1979 15.5504C29.1717 15.5718 29.1504 15.5985 29.1353 15.6289C29.1202 15.6593 29.1117 15.6925 29.1104 15.7264C29.0444 17.4084 27.989 18.6249 26.3157 18.6249C24.6423 18.6249 23.5872 17.4084 23.521 15.7264C23.5197 15.6925 23.5112 15.6592 23.4961 15.6288C23.481 15.5985 23.4597 15.5717 23.4335 15.5502C23.4073 15.5288 23.3769 15.5132 23.3443 15.5045C23.3117 15.4958 23.2776 15.4943 23.2443 15.4999L19.5497 16.1236C18.8343 16.2545 18.1871 16.634 17.7212 17.1959C17.2552 17.7577 17 18.4664 17 19.1982V22.6874C17 22.7702 17.0327 22.8497 17.0909 22.9083C17.1492 22.9669 17.2282 22.9999 17.3105 22.9999H19.1737C19.256 22.9999 19.335 22.9669 19.3932 22.9083C19.4515 22.8497 19.4842 22.7702 19.4842 22.6874V19.9867C19.4831 19.906 19.5124 19.828 19.5662 19.7681C19.62 19.7083 19.6942 19.6712 19.774 19.6641C19.8165 19.6613 19.859 19.6672 19.8991 19.6816C19.9391 19.696 19.9758 19.7185 20.0069 19.7477C20.0379 19.777 20.0627 19.8123 20.0796 19.8516C20.0965 19.8908 20.1052 19.9332 20.1052 19.976V22.6874C20.1052 22.7702 20.1379 22.8497 20.1962 22.9083C20.2544 22.9669 20.3334 22.9999 20.4157 22.9999H32.2156C32.2979 22.9999 32.3769 22.9669 32.4352 22.9083C32.4934 22.8497 32.5261 22.7702 32.5261 22.6874V19.9867C32.5251 19.906 32.5544 19.828 32.6081 19.7682C32.6619 19.7083 32.7361 19.6712 32.8159 19.6642C32.8584 19.6613 32.9009 19.6673 32.941 19.6816C32.981 19.696 33.0177 19.7185 33.0488 19.7478C33.0798 19.777 33.1046 19.8123 33.1215 19.8516C33.1384 19.8908 33.1471 19.9332 33.1472 19.976V22.6874C33.1472 22.7702 33.1799 22.8497 33.2381 22.9083C33.2963 22.9669 33.3753 22.9999 33.4577 22.9999H35.3208C35.4032 22.9999 35.4821 22.9669 35.5404 22.9083C35.5986 22.8497 35.6313 22.7702 35.6313 22.6874V19.1982C35.6316 18.4663 35.3765 17.7575 34.9105 17.1956C34.4445 16.6336 33.7972 16.2543 33.0816 16.1236Z" fill="#266CC2"/>
<path d="M23.2965 6.35371C23.7685 6.35388 24.2319 6.48119 24.6384 6.72242L25.111 7.00285L25.1252 7.01242C25.4776 7.24884 25.8917 7.375 26.3152 7.375C26.7387 7.375 27.1527 7.24884 27.5051 7.01242L27.5194 7.00285L27.9921 6.72242C28.3987 6.48118 28.862 6.35387 29.334 6.35371C29.9965 6.34992 30.6347 6.60423 31.1151 7.0634C30.9551 6.14255 30.5377 5.28663 29.9118 4.59586C29.4554 4.09304 28.8999 3.69144 28.2807 3.41667C27.6615 3.14191 26.9922 3 26.3155 3C25.6388 3 24.9695 3.14191 24.3503 3.41667C23.7311 3.69144 23.1755 4.09304 22.7191 4.59586C22.0932 5.28662 21.6757 6.14253 21.5156 7.0634C21.9959 6.60429 22.6341 6.34998 23.2965 6.35371Z" fill="#266CC2"/>
<path d="M26.216 15.1877C25.3386 15.1876 24.4824 14.9159 23.7636 14.4094C23.0448 13.903 22.4982 13.1863 22.1979 12.3566C21.9232 12.3118 21.6677 12.1868 21.4629 11.9972C21.2582 11.8075 21.1132 11.5616 21.046 11.2898L20.8752 10.6023C20.8329 10.4391 20.8285 10.2682 20.8624 10.103C20.8963 9.93781 20.9677 9.7827 21.0708 9.64973C21.1926 9.49613 21.3544 9.37953 21.5381 9.31289L21.41 8.37754C21.3918 8.24434 21.4166 8.10878 21.4807 7.99082C21.5287 7.90252 21.5835 7.81812 21.6445 7.7384C22.2519 6.94395 23.3656 6.75141 24.2235 7.26066L24.6815 7.53258C25.1359 7.83737 25.6698 8.00001 26.216 8.00001C26.7621 8.00001 27.296 7.83737 27.7504 7.53258L28.2084 7.26063C29.0662 6.75137 30.18 6.94395 30.7873 7.7384C30.8484 7.81811 30.9032 7.90251 30.9511 7.99082C31.0152 8.10879 31.04 8.24434 31.0219 8.37754L30.8938 9.31289C31.1409 9.40308 31.3461 9.58223 31.4696 9.81574C31.5932 10.0493 31.6264 10.3206 31.5628 10.5773L31.3859 11.2898C31.3187 11.5615 31.1738 11.8074 30.969 11.9971C30.7643 12.1867 30.5087 12.3117 30.234 12.3566C29.9337 13.1863 29.3871 13.9029 28.6684 14.4094C27.9496 14.9158 27.0934 15.1875 26.216 15.1877Z" fill="#266CC2"/>
<path d="M16.0283 41L13.958 35.0381H13.9189C13.9743 35.9235 14.002 36.7536 14.002 37.5283V41H12.9424V33.8613H14.5879L16.5703 39.54H16.5996L18.6406 33.8613H20.291V41H19.168V37.4697C19.168 37.1149 19.1761 36.6527 19.1924 36.083C19.2119 35.5133 19.2282 35.1683 19.2412 35.0479H19.2021L17.0586 41H16.0283ZM26.5996 41L25.8867 39.0176H23.1572L22.459 41H21.2285L23.8994 33.832H25.1689L27.8398 41H26.5996ZM25.5791 38.0117L24.9102 36.0684C24.8613 35.9382 24.793 35.7331 24.7051 35.4531C24.6204 35.1732 24.5618 34.9681 24.5293 34.8379C24.4414 35.2383 24.3128 35.6761 24.1436 36.1514L23.499 38.0117H25.5791ZM28.7822 41V33.8613H29.9492V39.999H32.9717V41H28.7822ZM38.2402 41H34.2021V33.8613H38.2402V34.8477H35.3691V36.791H38.0596V37.7676H35.3691V40.0088H38.2402V41Z" fill="#266CC2"/>
</svg>
