<svg width="15" height="16" viewBox="0 0 15 16" fill="none" xmlns="http://www.w3.org/2000/svg">
<path d="M12.8653 10.4992L9.90963 10.0003C9.88302 9.99586 9.85576 9.99712 9.82967 10.0041C9.80357 10.011 9.77925 10.0234 9.75831 10.0406C9.73737 10.0577 9.7203 10.0791 9.70823 10.1034C9.69615 10.1277 9.68936 10.1543 9.68829 10.1814C9.6355 11.527 8.79119 12.5002 7.45253 12.5002C6.11387 12.5002 5.26975 11.527 5.21677 10.1814C5.21573 10.1543 5.20895 10.1277 5.19688 10.1034C5.18482 10.0791 5.16775 10.0576 5.14681 10.0405C5.12586 10.0233 5.10153 10.0109 5.07543 10.0039C5.04933 9.99697 5.02206 9.9957 4.99543 10.0002L2.03979 10.4992C1.46741 10.6039 0.949713 10.9075 0.57695 11.357C0.204186 11.8065 4.09283e-06 12.3734 0 12.9588V15.7502C0 15.8165 0.0261725 15.8801 0.0727598 15.927C0.119347 15.9738 0.182533 16.0002 0.248418 16.0002H1.73892C1.80481 16.0002 1.86799 15.9738 1.91458 15.927C1.96117 15.8801 1.98734 15.8165 1.98734 15.7502V13.5896C1.98652 13.5251 2.00996 13.4627 2.05297 13.4148C2.09597 13.367 2.15537 13.3372 2.21924 13.3316C2.25318 13.3293 2.28722 13.3341 2.31926 13.3456C2.3513 13.3571 2.38065 13.3751 2.40548 13.3985C2.43032 13.4219 2.45012 13.4502 2.46366 13.4816C2.4772 13.513 2.48418 13.5468 2.48418 13.5811V15.7502C2.48418 15.8165 2.51035 15.8801 2.55694 15.927C2.60352 15.9738 2.66671 16.0002 2.73259 16.0002H12.1725C12.2384 16.0002 12.3015 15.9738 12.3481 15.927C12.3947 15.8801 12.4209 15.8165 12.4209 15.7502V13.5896C12.4201 13.5251 12.4435 13.4627 12.4865 13.4148C12.5295 13.367 12.5889 13.3373 12.6528 13.3316C12.6867 13.3293 12.7207 13.3341 12.7528 13.3456C12.7848 13.3571 12.8142 13.3751 12.839 13.3985C12.8638 13.4219 12.8837 13.4502 12.8972 13.4816C12.9107 13.513 12.9177 13.5468 12.9177 13.5811V15.7502C12.9177 15.8165 12.9439 15.8801 12.9905 15.927C13.0371 15.9738 13.1003 16.0002 13.1661 16.0002H14.6566C14.7225 16.0002 14.7857 15.9738 14.8323 15.927C14.8789 15.8801 14.9051 15.8165 14.9051 15.7502V12.9588C14.9053 12.3733 14.7012 11.8063 14.3284 11.3568C13.9556 10.9072 13.4378 10.6037 12.8653 10.4992Z" fill="#666666"/>
<path d="M5.03802 2.68297C5.4156 2.6831 5.78626 2.78495 6.11152 2.97794L6.48959 3.20228L6.50098 3.20994C6.78289 3.39907 7.11412 3.5 7.45293 3.5C7.79175 3.5 8.12298 3.39907 8.40489 3.20994L8.41628 3.20228L8.79444 2.97794C9.1197 2.78494 9.49038 2.68309 9.86797 2.68297C10.398 2.67993 10.9086 2.88339 11.2929 3.25072C11.1649 2.51404 10.831 1.82931 10.3302 1.27669C9.96512 0.874431 9.5207 0.553153 9.02534 0.333339C8.52998 0.113526 7.99454 0 7.45317 0C6.91179 0 6.37635 0.113526 5.88099 0.333339C5.38563 0.553153 4.94122 0.874431 4.57609 1.27669C4.07533 1.82929 3.74136 2.51402 3.61328 3.25072C3.99753 2.88343 4.50808 2.67999 5.03802 2.68297Z" fill="#666666"/>
<path d="M7.37319 9.74996C6.67124 9.74987 5.9863 9.53251 5.41127 9.12736C4.83624 8.72221 4.39894 8.14887 4.15869 7.48512C3.93896 7.44923 3.73452 7.34923 3.57071 7.19753C3.40691 7.04582 3.29094 6.84908 3.23719 6.63168L3.10056 6.08168C3.06668 5.95109 3.06318 5.8144 3.09032 5.68223C3.11746 5.55006 3.17452 5.42596 3.25706 5.31959C3.35451 5.19671 3.4839 5.10343 3.63087 5.05012L3.5284 4.30184C3.51385 4.19527 3.53369 4.08683 3.58497 3.99246C3.62335 3.92182 3.66716 3.8543 3.71598 3.79052C4.20192 3.15496 5.09284 3.00093 5.77918 3.40834L6.1456 3.62587C6.50915 3.8697 6.93627 3.99981 7.37316 3.99981C7.81004 3.99981 8.23716 3.8697 8.60071 3.62587L8.96713 3.40831C9.65338 3.0009 10.5444 3.15496 11.0303 3.79052C11.0791 3.85429 11.1229 3.92181 11.1613 3.99246C11.2126 4.08684 11.2324 4.19528 11.2179 4.30184L11.1154 5.05012C11.3131 5.12227 11.4773 5.26559 11.5761 5.4524C11.675 5.63921 11.7015 5.85625 11.6507 6.06162L11.5091 6.63162C11.4553 6.84902 11.3394 7.04576 11.1756 7.19747C11.0118 7.34918 10.8074 7.44917 10.5876 7.48505C10.3474 8.14881 9.91009 8.72214 9.33508 9.1273C8.76006 9.53246 8.07513 9.74984 7.37319 9.74996Z" fill="#666666"/>
</svg>
