<svg width="40" height="40" viewBox="0 0 40 40" fill="none" xmlns="http://www.w3.org/2000/svg">
<path d="M23.7834 33.1112C23.0444 32.0053 22.65 30.7051 22.65 29.3751C22.652 27.5921 23.3612 25.8827 24.622 24.622C25.8827 23.3612 27.5921 22.652 29.3751 22.65C30.7051 22.65 32.0053 23.0444 33.1112 23.7834C34.2171 24.5223 35.0791 25.5726 35.5881 26.8014C36.0971 28.0303 36.2302 29.3825 35.9708 30.687C35.7113 31.9915 35.0708 33.1898 34.1303 34.1303C33.1898 35.0708 31.9915 35.7113 30.687 35.9708C29.3825 36.2302 28.0303 36.0971 26.8014 35.5881C25.5726 35.0791 24.5223 34.2171 23.7834 33.1112ZM29.3752 23.6H29.375C28.2328 23.6 27.1163 23.9387 26.1666 24.5733C25.2169 25.2078 24.4767 26.1098 24.0396 27.165C23.6025 28.2202 23.4881 29.3814 23.711 30.5016C23.9338 31.6219 24.4838 32.6509 25.2915 33.4585C26.0991 34.2662 27.1281 34.8162 28.2483 35.039C29.3686 35.2618 30.5297 35.1475 31.585 34.7104C32.6402 34.2733 33.5422 33.5331 34.1767 32.5834C34.8113 31.6337 35.15 30.5172 35.15 29.375H35L35.15 29.3748C35.1483 27.8438 34.5393 26.3759 33.4567 25.2933C32.3741 24.2107 30.9062 23.6017 29.3752 23.6Z" fill="#666666" stroke="#666666" stroke-width="0.3"/>
<path d="M30.15 29.375L30.15 29.3748C30.1498 29.1694 30.0681 28.9725 29.9228 28.8272C29.7775 28.6819 29.5806 28.6002 29.3752 28.6H29.375C29.2217 28.6 29.0719 28.6455 28.9444 28.7306C28.817 28.8158 28.7177 28.9368 28.659 29.0784C28.6003 29.22 28.585 29.3759 28.6149 29.5262C28.6448 29.6765 28.7186 29.8146 28.827 29.923C28.9354 30.0314 29.0735 30.1052 29.2238 30.1351C29.3741 30.165 29.53 30.1497 29.6716 30.091C29.8132 30.0324 29.9342 29.933 30.0194 29.8056C30.1046 29.6781 30.15 29.5283 30.15 29.375ZM27.9407 30.3334C27.7512 30.0497 27.65 29.7162 27.65 29.3751C27.6505 28.9177 27.8325 28.4793 28.1559 28.1559C28.4793 27.8324 28.9178 27.6505 29.3752 27.65L29.375 27.5001V27.65C29.7162 27.65 30.0497 27.7512 30.3334 27.9407C30.617 28.1303 30.8381 28.3997 30.9687 28.7149C31.0993 29.0301 31.1334 29.3769 31.0669 29.7115C31.0003 30.0462 30.836 30.3535 30.5948 30.5948C30.3535 30.836 30.0462 31.0003 29.7115 31.0669C29.3769 31.1334 29.0301 31.0993 28.7149 30.9687C28.3997 30.8381 28.1303 30.617 27.9407 30.3334Z" fill="#666666" stroke="#666666" stroke-width="0.3"/>
<path d="M10.625 12.35H10.475V12.5V14.375C10.475 14.501 10.425 14.6218 10.3359 14.7109C10.2468 14.8 10.126 14.85 10 14.85H7.5C7.37402 14.85 7.2532 14.8 7.16412 14.7109C7.07504 14.6218 7.025 14.501 7.025 14.375V12.5V12.35H6.875H5C4.87402 12.35 4.7532 12.3 4.66412 12.2109C4.57504 12.1218 4.525 12.001 4.525 11.875V9.375C4.525 9.24902 4.57504 9.1282 4.66412 9.03912C4.7532 8.95004 4.87402 8.9 5 8.9H6.875H7.025V8.75V6.875C7.025 6.74902 7.07504 6.6282 7.16412 6.53912C7.2532 6.45004 7.37402 6.4 7.5 6.4H10C10.126 6.4 10.2468 6.45004 10.3359 6.53912C10.425 6.6282 10.475 6.74902 10.475 6.875V8.75V8.9H10.625H12.5C12.626 8.9 12.7468 8.95004 12.8359 9.03912C12.925 9.1282 12.975 9.24902 12.975 9.375V11.875C12.975 12.001 12.925 12.1218 12.8359 12.2109C12.7468 12.3 12.626 12.35 12.5 12.35H10.625ZM5.475 11.25V11.4H5.625H7.5C7.62598 11.4 7.7468 11.45 7.83588 11.5391C7.92496 11.6282 7.975 11.749 7.975 11.875V13.75V13.9H8.125H9.375H9.525V13.75V11.875C9.525 11.749 9.57504 11.6282 9.66412 11.5391C9.7532 11.45 9.87402 11.4 10 11.4H11.875H12.025V11.25V10V9.85H11.875H10C9.87402 9.85 9.7532 9.79996 9.66412 9.71088C9.57504 9.6218 9.525 9.50098 9.525 9.375V7.5V7.35H9.375H8.125H7.975V7.5V9.375C7.975 9.50098 7.92496 9.6218 7.83588 9.71088C7.7468 9.79996 7.62598 9.85 7.5 9.85H5.625H5.475V10V11.25Z" fill="#666666" stroke="#666666" stroke-width="0.3"/>
<path d="M1.4 5.62498V5.62497C1.39999 5.52746 1.42999 5.43231 1.48593 5.35244C1.54187 5.27257 1.62103 5.21185 1.71267 5.17853L8.58758 2.67856C8.69251 2.64048 8.80749 2.64048 8.91242 2.67856L15.7873 5.17853C15.879 5.21185 15.9581 5.27257 16.0141 5.35244C16.07 5.43231 16.1 5.52746 16.1 5.62497V9.55919C16.0952 11.7996 15.4036 13.9846 14.1183 15.8196C12.8331 17.6545 11.0161 19.0513 8.9124 19.8214C8.80754 19.8595 8.69264 19.8595 8.58777 19.8215C6.48401 19.0513 4.66701 17.6546 3.38175 15.8196C2.0965 13.9846 1.40482 11.7997 1.4 9.55935V5.62498ZM2.44874 5.92151L2.35 5.95742V6.06248L2.35 9.55951L2.35 9.55987C2.35445 11.4478 2.89307 13.296 3.90361 14.8908C4.91415 16.4855 6.35535 17.7617 8.06063 18.572L8.275 18.6738V18.4365V16.4H9.225V18.4362V18.6735L9.43937 18.5716C11.1447 17.7614 12.5859 16.4852 13.5964 14.8905C14.607 13.2957 15.1456 11.4475 15.15 9.55955V9.5592V6.06248V5.95741L15.0513 5.92151L9.42626 3.87636L9.225 3.80318V4.01733V4.84998H8.275V4.01701V3.80286L8.07374 3.87604L2.44874 5.92151Z" fill="#666666" stroke="#666666" stroke-width="0.3"/>
<mask id="path-5-inside-1" fill="white">
<path d="M38.125 10.625H34.375C34.2092 10.625 34.0503 10.6909 33.9331 10.8081C33.8158 10.9253 33.75 11.0842 33.75 11.25V11.875H32.5C32.3342 11.875 32.1753 11.9409 32.0581 12.0581C31.9408 12.1753 31.875 12.3342 31.875 12.5V20.339C31.4647 20.2253 31.047 20.14 30.625 20.0835V16.7866C30.624 16.0729 30.3718 15.3822 29.9128 14.8356C29.4538 14.289 28.8171 13.9213 28.1142 13.7969C28.8094 13.1171 29.2466 12.2167 29.3506 11.25H30C30.4422 11.2498 30.8701 11.0934 31.2081 10.8083C31.5461 10.5232 31.7725 10.1279 31.8472 9.69209C31.922 9.25629 31.8404 8.80808 31.6167 8.42664C31.3931 8.0452 31.0418 7.75507 30.625 7.6075V4.375C30.6245 3.97287 30.495 3.5815 30.2555 3.25848C30.016 2.93546 29.6791 2.69783 29.2945 2.58055C29.1772 2.1959 28.9395 1.85904 28.6165 1.61952C28.2935 1.38001 27.9021 1.25048 27.5 1.25H25.2001C24.5755 1.24946 23.9566 1.36864 23.3769 1.6011L23.1102 1.70781C22.5591 1.92827 21.9627 2.01135 21.3724 1.94989C20.782 1.88842 20.2155 1.68426 19.7217 1.355C19.6276 1.29224 19.5182 1.25621 19.4052 1.25074C19.2922 1.24528 19.1799 1.27058 19.0801 1.32395C18.9804 1.37733 18.897 1.45678 18.8388 1.55382C18.7807 1.65087 18.75 1.76187 18.75 1.875V4.7725C18.7504 5.44784 18.9227 6.11195 19.2508 6.70226C19.5788 7.29257 20.0517 7.78964 20.625 8.14664V10.8003C20.6247 11.3586 20.7361 11.9114 20.9526 12.426C21.1692 12.9406 21.4864 13.4067 21.8858 13.7969C21.1829 13.9213 20.5463 14.289 20.0872 14.8355C19.6282 15.3821 19.3761 16.0727 19.375 16.7865V23.125H16.5781C16.1937 23.124 15.8129 23.1992 15.4578 23.3463C15.1026 23.4934 14.7802 23.7095 14.5091 23.982L14.0625 24.4286L13.567 23.9331C13.5089 23.875 13.44 23.829 13.3642 23.7976C13.2884 23.7661 13.2071 23.75 13.125 23.75C13.0429 23.75 12.9616 23.7661 12.8858 23.7976C12.81 23.829 12.7411 23.875 12.683 23.9331L7.24117 29.375H4.6875C3.77582 29.375 2.90148 29.7372 2.25682 30.3818C1.61216 31.0265 1.25 31.9008 1.25 32.8125C1.25 33.7242 1.61216 34.5985 2.25682 35.2432C2.90148 35.8878 3.77582 36.25 4.6875 36.25H9.375C9.45708 36.25 9.53835 36.2338 9.61418 36.2024C9.69001 36.171 9.75891 36.125 9.81695 36.067L10.2589 35.625H13.125C13.2071 35.625 13.2884 35.6088 13.3642 35.5774C13.44 35.546 13.5089 35.5 13.567 35.442L18.3839 30.625H20.0835C20.3016 32.2475 20.9408 33.7846 21.9375 35.0833C22.9341 36.3821 24.2535 37.3972 25.7643 38.0277C27.2751 38.6582 28.9247 38.8821 30.5489 38.6771C32.1731 38.4721 33.7153 37.8454 35.022 36.8593C36.3288 35.8731 37.3546 34.562 37.9973 33.0564C38.64 31.5507 38.8772 29.903 38.6853 28.2772C38.4935 26.6514 37.8792 25.1042 36.9037 23.7895C35.9282 22.4748 34.6254 21.4384 33.125 20.7836V13.125H33.75V13.75C33.75 13.9158 33.8158 14.0747 33.9331 14.1919C34.0503 14.3092 34.2092 14.375 34.375 14.375H38.125C38.2908 14.375 38.4497 14.3092 38.5669 14.1919C38.6842 14.0747 38.75 13.9158 38.75 13.75V11.25C38.75 11.0842 38.6842 10.9253 38.5669 10.8081C38.4497 10.6909 38.2908 10.625 38.125 10.625ZM28.125 20.0835V18.125H29.375V20C28.9569 20.0001 28.5394 20.028 28.125 20.0835V20.0835ZM30 10H29.375V8.75H30C30.1658 8.75 30.3247 8.81585 30.4419 8.93306C30.5592 9.05027 30.625 9.20924 30.625 9.375C30.625 9.54076 30.5592 9.69973 30.4419 9.81694C30.3247 9.93415 30.1658 10 30 10ZM20 2.89664C21.1527 3.33684 22.4289 3.32674 23.5745 2.86836L23.8412 2.76172C24.2733 2.58843 24.7345 2.49959 25.2001 2.5H27.5C27.6657 2.50019 27.8246 2.5661 27.9417 2.68327C28.0589 2.80044 28.1248 2.9593 28.125 3.125C28.125 3.29076 28.1908 3.44973 28.3081 3.56694C28.4253 3.68415 28.5842 3.75 28.75 3.75C28.9157 3.75019 29.0746 3.8161 29.1917 3.93327C29.3089 4.05044 29.3748 4.2093 29.375 4.375V7.5H28.6807C28.5334 7.49982 28.3921 7.44121 28.288 7.33703C28.1838 7.23286 28.1252 7.09162 28.125 6.9443V5C28.125 4.87639 28.0884 4.75554 28.0197 4.65276C27.951 4.54997 27.8534 4.46986 27.7392 4.42256C27.625 4.37525 27.4993 4.36287 27.3781 4.38699C27.2568 4.41111 27.1455 4.47064 27.058 4.55805L25.098 6.51813C24.7875 6.83041 24.418 7.07799 24.0111 7.24653C23.6042 7.41507 23.1679 7.50122 22.7275 7.5C22.0044 7.4992 21.3111 7.21158 20.7998 6.70025C20.2884 6.18891 20.0008 5.49563 20 4.7725V2.89664ZM21.875 8.65703C22.155 8.7187 22.4408 8.74987 22.7275 8.75C23.3322 8.75167 23.9311 8.63338 24.4898 8.40198C25.0484 8.17059 25.5556 7.83069 25.982 7.40196L26.875 6.50891V6.9443C26.8755 7.32589 26.9967 7.69754 27.2212 8.00608C27.4457 8.31463 27.7621 8.54426 28.125 8.66211V10.8003C28.1241 11.5823 27.813 12.3321 27.2601 12.8851C26.7071 13.438 25.9573 13.7491 25.1753 13.75H24.8247C24.0427 13.7491 23.2929 13.438 22.7399 12.8851C22.187 12.3321 21.8759 11.5823 21.875 10.8003V8.65703ZM22.4115 15H27.5885C28.0622 15.0005 28.5162 15.1889 28.8512 15.5238C29.1861 15.8588 29.3745 16.3128 29.375 16.7865V16.875H27.5C27.3342 16.875 27.1753 16.9409 27.0581 17.0581C26.9408 17.1753 26.875 17.3342 26.875 17.5V20.339C25.4833 20.7257 24.1999 21.4289 23.125 22.3937V17.5C23.125 17.3342 23.0592 17.1753 22.9419 17.0581C22.8247 16.9409 22.6658 16.875 22.5 16.875H20.625V16.7865C20.6255 16.3128 20.8139 15.8588 21.1488 15.5238C21.4838 15.1889 21.9378 15.0005 22.4115 15V15ZM20.625 18.125H21.875V23.125H20.625V18.125ZM15.393 24.8659C15.5482 24.7097 15.7329 24.586 15.9364 24.5017C16.1398 24.4175 16.3579 24.3744 16.5781 24.375H21.4483C20.9577 25.1493 20.5839 25.9917 20.3389 26.875H16.875C16.7728 26.875 16.6722 26.9001 16.582 26.9481L14.9464 25.3125L15.393 24.8659ZM9.11617 35H4.6875C4.10734 35 3.55094 34.7695 3.1407 34.3593C2.73047 33.9491 2.5 33.3927 2.5 32.8125C2.5 32.2323 2.73047 31.6759 3.1407 31.2657C3.55094 30.8555 4.10734 30.625 4.6875 30.625H7.5C7.58208 30.625 7.66335 30.6088 7.73918 30.5774C7.81501 30.546 7.88391 30.5 7.94195 30.442L13.125 25.2589L15.9912 28.125L9.11617 35ZM12.8662 34.375H11.5089L17.317 28.567C17.375 28.509 17.4211 28.4402 17.4525 28.3644C17.4839 28.2887 17.5001 28.2074 17.5 28.1254V29.7411L12.8662 34.375ZM18.75 29.375V28.125H20.0835C20.028 28.5394 20.0001 28.9569 20 29.375H18.75ZM37.5 29.375C37.5 30.982 37.0235 32.5529 36.1307 33.889C35.2379 35.2252 33.969 36.2666 32.4843 36.8815C30.9997 37.4965 29.366 37.6574 27.7899 37.3439C26.2138 37.0304 24.7661 36.2565 23.6298 35.1202C22.4935 33.9839 21.7196 32.5362 21.4061 30.9601C21.0926 29.384 21.2535 27.7504 21.8685 26.2657C22.4834 24.7811 23.5248 23.5121 24.861 22.6193C26.1971 21.7265 27.768 21.25 29.375 21.25C31.5291 21.2524 33.5943 22.1093 35.1175 23.6325C36.6408 25.1557 37.4976 27.2209 37.5 29.375V29.375ZM37.5 13.125H35V11.875H37.5V13.125Z"/>
</mask>
<path d="M38.125 10.625H34.375C34.2092 10.625 34.0503 10.6909 33.9331 10.8081C33.8158 10.9253 33.75 11.0842 33.75 11.25V11.875H32.5C32.3342 11.875 32.1753 11.9409 32.0581 12.0581C31.9408 12.1753 31.875 12.3342 31.875 12.5V20.339C31.4647 20.2253 31.047 20.14 30.625 20.0835V16.7866C30.624 16.0729 30.3718 15.3822 29.9128 14.8356C29.4538 14.289 28.8171 13.9213 28.1142 13.7969C28.8094 13.1171 29.2466 12.2167 29.3506 11.25H30C30.4422 11.2498 30.8701 11.0934 31.2081 10.8083C31.5461 10.5232 31.7725 10.1279 31.8472 9.69209C31.922 9.25629 31.8404 8.80808 31.6167 8.42664C31.3931 8.0452 31.0418 7.75507 30.625 7.6075V4.375C30.6245 3.97287 30.495 3.5815 30.2555 3.25848C30.016 2.93546 29.6791 2.69783 29.2945 2.58055C29.1772 2.1959 28.9395 1.85904 28.6165 1.61952C28.2935 1.38001 27.9021 1.25048 27.5 1.25H25.2001C24.5755 1.24946 23.9566 1.36864 23.3769 1.6011L23.1102 1.70781C22.5591 1.92827 21.9627 2.01135 21.3724 1.94989C20.782 1.88842 20.2155 1.68426 19.7217 1.355C19.6276 1.29224 19.5182 1.25621 19.4052 1.25074C19.2922 1.24528 19.1799 1.27058 19.0801 1.32395C18.9804 1.37733 18.897 1.45678 18.8388 1.55382C18.7807 1.65087 18.75 1.76187 18.75 1.875V4.7725C18.7504 5.44784 18.9227 6.11195 19.2508 6.70226C19.5788 7.29257 20.0517 7.78964 20.625 8.14664V10.8003C20.6247 11.3586 20.7361 11.9114 20.9526 12.426C21.1692 12.9406 21.4864 13.4067 21.8858 13.7969C21.1829 13.9213 20.5463 14.289 20.0872 14.8355C19.6282 15.3821 19.3761 16.0727 19.375 16.7865V23.125H16.5781C16.1937 23.124 15.8129 23.1992 15.4578 23.3463C15.1026 23.4934 14.7802 23.7095 14.5091 23.982L14.0625 24.4286L13.567 23.9331C13.5089 23.875 13.44 23.829 13.3642 23.7976C13.2884 23.7661 13.2071 23.75 13.125 23.75C13.0429 23.75 12.9616 23.7661 12.8858 23.7976C12.81 23.829 12.7411 23.875 12.683 23.9331L7.24117 29.375H4.6875C3.77582 29.375 2.90148 29.7372 2.25682 30.3818C1.61216 31.0265 1.25 31.9008 1.25 32.8125C1.25 33.7242 1.61216 34.5985 2.25682 35.2432C2.90148 35.8878 3.77582 36.25 4.6875 36.25H9.375C9.45708 36.25 9.53835 36.2338 9.61418 36.2024C9.69001 36.171 9.75891 36.125 9.81695 36.067L10.2589 35.625H13.125C13.2071 35.625 13.2884 35.6088 13.3642 35.5774C13.44 35.546 13.5089 35.5 13.567 35.442L18.3839 30.625H20.0835C20.3016 32.2475 20.9408 33.7846 21.9375 35.0833C22.9341 36.3821 24.2535 37.3972 25.7643 38.0277C27.2751 38.6582 28.9247 38.8821 30.5489 38.6771C32.1731 38.4721 33.7153 37.8454 35.022 36.8593C36.3288 35.8731 37.3546 34.562 37.9973 33.0564C38.64 31.5507 38.8772 29.903 38.6853 28.2772C38.4935 26.6514 37.8792 25.1042 36.9037 23.7895C35.9282 22.4748 34.6254 21.4384 33.125 20.7836V13.125H33.75V13.75C33.75 13.9158 33.8158 14.0747 33.9331 14.1919C34.0503 14.3092 34.2092 14.375 34.375 14.375H38.125C38.2908 14.375 38.4497 14.3092 38.5669 14.1919C38.6842 14.0747 38.75 13.9158 38.75 13.75V11.25C38.75 11.0842 38.6842 10.9253 38.5669 10.8081C38.4497 10.6909 38.2908 10.625 38.125 10.625ZM28.125 20.0835V18.125H29.375V20C28.9569 20.0001 28.5394 20.028 28.125 20.0835V20.0835ZM30 10H29.375V8.75H30C30.1658 8.75 30.3247 8.81585 30.4419 8.93306C30.5592 9.05027 30.625 9.20924 30.625 9.375C30.625 9.54076 30.5592 9.69973 30.4419 9.81694C30.3247 9.93415 30.1658 10 30 10ZM20 2.89664C21.1527 3.33684 22.4289 3.32674 23.5745 2.86836L23.8412 2.76172C24.2733 2.58843 24.7345 2.49959 25.2001 2.5H27.5C27.6657 2.50019 27.8246 2.5661 27.9417 2.68327C28.0589 2.80044 28.1248 2.9593 28.125 3.125C28.125 3.29076 28.1908 3.44973 28.3081 3.56694C28.4253 3.68415 28.5842 3.75 28.75 3.75C28.9157 3.75019 29.0746 3.8161 29.1917 3.93327C29.3089 4.05044 29.3748 4.2093 29.375 4.375V7.5H28.6807C28.5334 7.49982 28.3921 7.44121 28.288 7.33703C28.1838 7.23286 28.1252 7.09162 28.125 6.9443V5C28.125 4.87639 28.0884 4.75554 28.0197 4.65276C27.951 4.54997 27.8534 4.46986 27.7392 4.42256C27.625 4.37525 27.4993 4.36287 27.3781 4.38699C27.2568 4.41111 27.1455 4.47064 27.058 4.55805L25.098 6.51813C24.7875 6.83041 24.418 7.07799 24.0111 7.24653C23.6042 7.41507 23.1679 7.50122 22.7275 7.5C22.0044 7.4992 21.3111 7.21158 20.7998 6.70025C20.2884 6.18891 20.0008 5.49563 20 4.7725V2.89664ZM21.875 8.65703C22.155 8.7187 22.4408 8.74987 22.7275 8.75C23.3322 8.75167 23.9311 8.63338 24.4898 8.40198C25.0484 8.17059 25.5556 7.83069 25.982 7.40196L26.875 6.50891V6.9443C26.8755 7.32589 26.9967 7.69754 27.2212 8.00608C27.4457 8.31463 27.7621 8.54426 28.125 8.66211V10.8003C28.1241 11.5823 27.813 12.3321 27.2601 12.8851C26.7071 13.438 25.9573 13.7491 25.1753 13.75H24.8247C24.0427 13.7491 23.2929 13.438 22.7399 12.8851C22.187 12.3321 21.8759 11.5823 21.875 10.8003V8.65703ZM22.4115 15H27.5885C28.0622 15.0005 28.5162 15.1889 28.8512 15.5238C29.1861 15.8588 29.3745 16.3128 29.375 16.7865V16.875H27.5C27.3342 16.875 27.1753 16.9409 27.0581 17.0581C26.9408 17.1753 26.875 17.3342 26.875 17.5V20.339C25.4833 20.7257 24.1999 21.4289 23.125 22.3937V17.5C23.125 17.3342 23.0592 17.1753 22.9419 17.0581C22.8247 16.9409 22.6658 16.875 22.5 16.875H20.625V16.7865C20.6255 16.3128 20.8139 15.8588 21.1488 15.5238C21.4838 15.1889 21.9378 15.0005 22.4115 15V15ZM20.625 18.125H21.875V23.125H20.625V18.125ZM15.393 24.8659C15.5482 24.7097 15.7329 24.586 15.9364 24.5017C16.1398 24.4175 16.3579 24.3744 16.5781 24.375H21.4483C20.9577 25.1493 20.5839 25.9917 20.3389 26.875H16.875C16.7728 26.875 16.6722 26.9001 16.582 26.9481L14.9464 25.3125L15.393 24.8659ZM9.11617 35H4.6875C4.10734 35 3.55094 34.7695 3.1407 34.3593C2.73047 33.9491 2.5 33.3927 2.5 32.8125C2.5 32.2323 2.73047 31.6759 3.1407 31.2657C3.55094 30.8555 4.10734 30.625 4.6875 30.625H7.5C7.58208 30.625 7.66335 30.6088 7.73918 30.5774C7.81501 30.546 7.88391 30.5 7.94195 30.442L13.125 25.2589L15.9912 28.125L9.11617 35ZM12.8662 34.375H11.5089L17.317 28.567C17.375 28.509 17.4211 28.4402 17.4525 28.3644C17.4839 28.2887 17.5001 28.2074 17.5 28.1254V29.7411L12.8662 34.375ZM18.75 29.375V28.125H20.0835C20.028 28.5394 20.0001 28.9569 20 29.375H18.75ZM37.5 29.375C37.5 30.982 37.0235 32.5529 36.1307 33.889C35.2379 35.2252 33.969 36.2666 32.4843 36.8815C30.9997 37.4965 29.366 37.6574 27.7899 37.3439C26.2138 37.0304 24.7661 36.2565 23.6298 35.1202C22.4935 33.9839 21.7196 32.5362 21.4061 30.9601C21.0926 29.384 21.2535 27.7504 21.8685 26.2657C22.4834 24.7811 23.5248 23.5121 24.861 22.6193C26.1971 21.7265 27.768 21.25 29.375 21.25C31.5291 21.2524 33.5943 22.1093 35.1175 23.6325C36.6408 25.1557 37.4976 27.2209 37.5 29.375V29.375ZM37.5 13.125H35V11.875H37.5V13.125Z" fill="#666666" stroke="#666666" stroke-width="0.6" mask="url(#path-5-inside-1)"/>
</svg>
