<svg width="21" height="22" viewBox="0 0 21 22" fill="none" xmlns="http://www.w3.org/2000/svg">
<path d="M20.0156 19.2168L15.2555 14.2662C16.4794 12.8113 17.15 10.9807 17.15 9.07499C17.15 4.62251 13.5275 1 9.07499 1C4.62251 1 1 4.62251 1 9.07499C1 13.5275 4.62251 17.15 9.07499 17.15C10.7465 17.15 12.3394 16.6458 13.7013 15.6888L18.4975 20.677C18.6979 20.8852 18.9676 21 19.2565 21C19.53 21 19.7895 20.8957 19.9864 20.7061C20.4049 20.3034 20.4183 19.6357 20.0156 19.2168ZM9.07499 3.10652C12.3661 3.10652 15.0435 5.78391 15.0435 9.07499C15.0435 12.3661 12.3661 15.0435 9.07499 15.0435C5.78391 15.0435 3.10652 12.3661 3.10652 9.07499C3.10652 5.78391 5.78391 3.10652 9.07499 3.10652Z" fill="#266CC2" stroke="#F5F6FA" stroke-width="0.5"/>
</svg>
