<svg width="36" height="42" viewBox="0 0 36 42" fill="none" xmlns="http://www.w3.org/2000/svg">
<path d="M35.1056 39.0023L33.3986 29.0088C33.2135 27.9249 32.4445 27.0543 31.3918 26.7367L23.7292 24.4248C23.3912 24.3228 23.0405 24.3672 22.7492 24.5262C22.4769 24.2837 22.2783 23.869 22.2783 23.485V21.5722C22.2981 21.5552 22.3179 21.5381 22.3376 21.5212C22.3671 21.4958 22.3984 21.4684 22.4306 21.4398H23.1811C24.2229 21.4398 25.1893 21.0216 25.9023 20.262C26.6153 19.5025 26.9718 18.5116 26.9059 17.4719L26.6979 14.1859V14.1367C26.6979 14.047 26.6911 13.959 26.6781 13.8728L25.8715 7.45775C25.8511 7.13579 25.9005 8.01346 25.5794 8.03361C25.2575 8.05401 25 7.00006 24.7644 7.56256L25.4171 12.4438C25.2648 12.4007 25.1042 12.377 24.9382 12.377H24.9057C24.734 12.1165 24.4492 11.9368 24.1143 11.9066C18.0513 11.361 16.3058 9.55037 15.0311 8.22818C14.7662 7.95341 14.3316 7.9324 13.7397 8.16576C12.7107 8.5713 10.9591 9.88193 10.9208 12.2222C10.9208 12.2254 10.9207 12.2286 10.9207 12.2318V12.3826C10.8046 12.3919 10.6918 12.4129 10.583 12.4437L10.7632 9.59771C10.8591 8.08373 11.6213 6.73411 12.8371 5.87575L12.8813 5.9913C13.1745 6.75747 13.9227 7.27224 14.7431 7.27224H21.4096C22.2299 7.27224 22.9781 6.75747 23.2714 5.9913L23.2816 5.96458C23.9127 6.44013 24.4194 7.05693 24.7644 7.77779C24.8648 7.9874 25.0738 8.10982 25.2917 8.10982C25.3762 8.10982 25.4621 8.0913 25.5434 8.0524C25.8344 7.91318 25.9574 7.56435 25.8181 7.27341C25.3428 6.28052 24.6203 5.447 23.7128 4.8377L24.115 3.78668C24.2679 3.38715 24.2374 2.94301 24.0314 2.56817C23.8253 2.1934 23.4668 1.92957 23.0477 1.84449L19.6955 1.16371C18.621 0.94543 17.5316 0.94543 16.4571 1.16371L13.105 1.84434C12.6859 1.92942 12.3273 2.19317 12.1213 2.56809C11.9152 2.94301 11.8847 3.38707 12.0377 3.78661L12.4091 4.757C10.7623 5.80466 9.72227 7.55107 9.59742 9.52381L9.32062 13.896C9.30976 13.9748 9.30227 14.0547 9.30227 14.1365V14.1857L9.0943 17.4717C9.02844 18.5113 9.38492 19.5023 10.0979 20.2618C10.8109 21.0213 11.7773 21.4396 12.8191 21.4396H13.5696C13.6018 21.468 13.6331 21.4955 13.6626 21.5209C13.6823 21.5379 13.7021 21.5549 13.7219 21.572V23.4848C13.7219 23.8688 13.5233 24.2835 13.2509 24.5259C12.9597 24.367 12.6089 24.3224 12.2711 24.4245L4.60843 26.7365C3.55577 27.0541 2.78678 27.9248 2.60155 29.0086L1.48889 35.5231C1.43459 35.841 1.84498 34.9914 2.16295 35.0457C2.48061 35.1004 2.58608 36.0378 2.64038 35.7197L3.75304 29.2052C3.86311 28.5611 4.32015 28.0436 4.94577 27.8549L12.6085 25.5427C12.6587 25.5277 12.712 25.5506 12.7357 25.5972L16.3944 32.8255C16.4906 33.0157 16.617 33.1835 16.7659 33.3241C17.0935 33.6336 17.5309 33.8123 17.9999 33.8123C18.2985 33.8123 18.5841 33.7399 18.8368 33.6075C19.1617 33.4373 19.4322 33.1678 19.6056 32.8254L23.2642 25.5972C23.2878 25.5505 23.3413 25.5273 23.3915 25.5427L31.0542 27.8548C31.6799 28.0435 32.1369 28.561 32.2469 29.2052L33.9539 39.1985C33.9908 39.4146 33.8946 39.5674 33.8339 39.6393C33.7732 39.7111 33.6388 39.8318 33.4197 39.8318H29.8014L28.8468 34.2433C28.7925 33.9253 28.4909 33.7114 28.1727 33.7659C27.8547 33.8202 27.641 34.122 27.6953 34.4399L28.6163 39.8317H7.38382L8.30484 34.4399C8.35914 34.122 8.14539 33.8202 7.82742 33.7659C7.50961 33.7115 7.20765 33.9253 7.15335 34.2433L6.19874 39.8318H2.58038C2.36124 39.8318 2.22678 39.7111 2.16616 39.6393C2.10553 39.5674 2.00928 39.4145 2.04616 39.1985L2.64038 35.7197C2.69467 35.4017 2.48092 35.0999 2.16295 35.0457C1.84514 34.9911 1.54319 35.2051 1.48889 35.5231L0.89467 39.0019C0.80967 39.4997 0.947639 40.0067 1.27326 40.3926C1.59889 40.7786 2.0753 41 2.58038 41H33.42C33.925 41 34.4014 40.7786 34.7271 40.3926C35.0526 40.007 35.1907 39.5 35.1056 39.0023ZM13.1452 3.1309C13.1688 3.08786 13.2253 3.01215 13.3376 2.98934L16.6897 2.30864C17.1499 2.21528 17.6131 2.16856 18.0764 2.16856C18.5396 2.16856 19.0031 2.21528 19.4631 2.30864L22.8153 2.98934C22.9274 3.01207 22.984 3.08786 23.0077 3.1309C23.0314 3.17403 23.065 3.26223 23.0241 3.36926L22.1804 5.5738C22.059 5.89099 21.7492 6.10411 21.4096 6.10411H14.7432C14.4036 6.10411 14.0938 5.89099 13.9724 5.5738L13.1288 3.36926C13.0878 3.26231 13.1215 3.17403 13.1452 3.1309ZM25.7401 17.5458C25.7853 18.2601 25.5404 18.9407 25.0506 19.4625C24.6528 19.8862 24.1403 20.1554 23.5784 20.2416C24.2206 19.4466 24.8511 18.3961 25.0291 17.1968C25.2713 17.1844 25.5001 17.1219 25.7069 17.0209L25.7401 17.5458ZM10.9497 19.4625C10.4598 18.9407 10.215 18.26 10.2602 17.5458L10.2934 17.021C10.5002 17.1219 10.729 17.1844 10.9712 17.1969C11.1491 18.3961 11.7797 19.4466 12.4219 20.2416C11.86 20.1554 11.3474 19.8862 10.9497 19.4625ZM18.6367 32.1534L18.5635 32.2981C18.5531 32.3187 18.5409 32.3378 18.5288 32.3567C18.5249 32.3627 18.5217 32.3694 18.5178 32.3753C18.5104 32.386 18.5017 32.3952 18.4938 32.4053C18.4658 32.4412 18.4353 32.4746 18.401 32.503C18.3938 32.5089 18.3857 32.5137 18.3783 32.5193C18.2721 32.5992 18.142 32.6444 18.0001 32.6444C17.7571 32.6444 17.5465 32.5149 17.4367 32.2982L15.0111 27.5058H20.9892L18.6367 32.1534ZM21.5805 26.3376H14.4198L13.9686 25.4462C14.519 24.9858 14.8902 24.2341 14.8902 23.4849V22.4771C15.6548 22.9688 16.6116 23.3502 17.9937 23.3657C17.9959 23.3657 17.998 23.3657 18.0002 23.3657C18.0024 23.3657 18.0045 23.3657 18.0067 23.3657C19.3888 23.3502 20.3456 22.9688 21.1102 22.4772V23.485C21.1102 24.2343 21.4813 24.9859 22.0317 25.4463L21.5805 26.3376ZM21.5754 20.6359C20.4953 21.5661 19.6626 22.1774 18.0002 22.1975C16.3378 22.1774 15.5051 21.566 14.4249 20.6359C12.991 19.4013 12.1184 17.8935 12.0906 16.6025C12.0838 16.2849 11.8244 16.0309 11.5067 16.0309H11.0621C10.7359 16.0309 10.4706 15.7656 10.4706 15.4394V14.1367C10.4706 14.1094 10.4731 14.0829 10.4767 14.0565C10.4784 14.0476 10.4796 14.0387 10.4809 14.0297C10.5314 13.7545 10.7726 13.5452 11.0622 13.5452H11.505C11.8276 13.5452 12.0891 13.2837 12.0891 12.9612V12.2369C12.1241 10.2599 13.8067 9.33607 14.3396 9.19271C16.0525 10.9401 18.1577 12.529 23.9201 13.062C23.9678 13.3365 24.2073 13.5452 24.4955 13.5452H24.9383C25.2278 13.5452 25.469 13.7545 25.5196 14.0297C25.5209 14.0387 25.5221 14.0477 25.5238 14.0565C25.5274 14.0828 25.5299 14.1094 25.5299 14.1367V15.4394C25.5299 15.7655 25.2646 16.0309 24.9384 16.0309H24.4938C24.176 16.0309 23.9167 16.2848 23.9099 16.6025C23.882 17.8934 23.0093 19.4012 21.5754 20.6359Z" fill="black"/>
<path d="M1.48889 35.5231L2.60155 29.0086C2.78678 27.9248 3.55577 27.0541 4.60843 26.7365L12.2711 24.4245C12.6089 24.3224 12.9597 24.367 13.2509 24.5259C13.5233 24.2835 13.7219 23.8688 13.7219 23.4848V21.572C13.7021 21.5549 13.6823 21.5379 13.6626 21.5209C13.6331 21.4955 13.6018 21.468 13.5696 21.4396H12.8191C11.7773 21.4396 10.8109 21.0213 10.0979 20.2618C9.38492 19.5023 9.02844 18.5113 9.0943 17.4717L9.30227 14.1857V14.1365C9.30227 14.0547 9.30976 13.9748 9.32062 13.896L9.59742 9.52381C9.72227 7.55107 10.7623 5.80466 12.4091 4.757L12.0377 3.78661C11.8847 3.38707 11.9152 2.94301 12.1213 2.56809C12.3273 2.19317 12.6859 1.92942 13.105 1.84434L16.4571 1.16371C17.5316 0.94543 18.621 0.94543 19.6955 1.16371L23.0477 1.84449C23.4668 1.92957 23.8253 2.1934 24.0314 2.56817C24.2374 2.94301 24.2679 3.38715 24.115 3.78668L23.7128 4.8377C24.6203 5.447 25.3428 6.28052 25.8181 7.27341C25.9574 7.56435 25.8344 7.91318 25.5434 8.0524C25.4621 8.0913 25.3762 8.10982 25.2917 8.10982C25.0738 8.10982 24.8648 7.9874 24.7644 7.77779C24.4194 7.05693 23.9127 6.44013 23.2816 5.96458L23.2714 5.9913C22.9781 6.75747 22.2299 7.27224 21.4096 7.27224H14.7431C13.9227 7.27224 13.1745 6.75747 12.8813 5.9913L12.8371 5.87575C11.6213 6.73411 10.8591 8.08373 10.7632 9.59771L10.583 12.4437C10.6918 12.4129 10.8046 12.3919 10.9207 12.3826V12.2318C10.9207 12.2286 10.9208 12.2254 10.9208 12.2222C10.9591 9.88193 12.7107 8.5713 13.7397 8.16576C14.3316 7.9324 14.7662 7.95341 15.0311 8.22818C16.3058 9.55037 18.0513 11.361 24.1143 11.9066C24.4492 11.9368 24.734 12.1165 24.9057 12.377H24.9382C25.1042 12.377 25.2648 12.4007 25.4171 12.4438L24.7644 7.56256C25 7.00006 25.2575 8.05401 25.5794 8.03361C25.9005 8.01346 25.8511 7.13579 25.8715 7.45775L26.6781 13.8728C26.6911 13.959 26.6979 14.047 26.6979 14.1367V14.1859L26.9059 17.4719C26.9718 18.5116 26.6153 19.5025 25.9023 20.262C25.1893 21.0216 24.2229 21.4398 23.1811 21.4398H22.4306C22.3984 21.4684 22.3671 21.4958 22.3376 21.5212C22.3179 21.5381 22.2981 21.5552 22.2783 21.5722V23.485C22.2783 23.869 22.4769 24.2837 22.7492 24.5262C23.0405 24.3672 23.3912 24.3228 23.7292 24.4248L31.3918 26.7367C32.4445 27.0543 33.2135 27.9249 33.3986 29.0088L35.1056 39.0023C35.1907 39.5 35.0526 40.007 34.7271 40.3926C34.4014 40.7786 33.925 41 33.42 41H2.58038C2.0753 41 1.59889 40.7786 1.27326 40.3926C0.947639 40.0067 0.80967 39.4997 0.89467 39.0019L1.48889 35.5231ZM1.48889 35.5231C1.43459 35.841 1.84498 34.9914 2.16295 35.0457M1.48889 35.5231C1.54319 35.2051 1.84514 34.9911 2.16295 35.0457M2.16295 35.0457C2.48061 35.1004 2.58608 36.0378 2.64038 35.7197M2.16295 35.0457C2.48092 35.0999 2.69467 35.4017 2.64038 35.7197M2.64038 35.7197L3.75304 29.2052C3.86311 28.5611 4.32015 28.0436 4.94577 27.8549L12.6085 25.5427C12.6587 25.5277 12.712 25.5506 12.7357 25.5972L16.3944 32.8255C16.4906 33.0157 16.617 33.1835 16.7659 33.3241C17.0935 33.6336 17.5309 33.8123 17.9999 33.8123C18.2985 33.8123 18.5841 33.7399 18.8368 33.6075C19.1617 33.4373 19.4322 33.1678 19.6056 32.8254L23.2642 25.5972C23.2878 25.5505 23.3413 25.5273 23.3915 25.5427L31.0542 27.8548C31.6799 28.0435 32.1369 28.561 32.2469 29.2052L33.9539 39.1985C33.9908 39.4146 33.8946 39.5674 33.8339 39.6393C33.7732 39.7111 33.6388 39.8318 33.4197 39.8318H29.8014L28.8468 34.2433C28.7925 33.9253 28.4909 33.7114 28.1727 33.7659C27.8547 33.8202 27.641 34.122 27.6953 34.4399L28.6163 39.8317H7.38382L8.30484 34.4399C8.35914 34.122 8.14539 33.8202 7.82742 33.7659C7.50961 33.7115 7.20765 33.9253 7.15335 34.2433L6.19874 39.8318H2.58038C2.36124 39.8318 2.22678 39.7111 2.16616 39.6393C2.10553 39.5674 2.00928 39.4145 2.04616 39.1985L2.64038 35.7197ZM13.1452 3.1309C13.1688 3.08786 13.2253 3.01215 13.3376 2.98934L16.6897 2.30864C17.1499 2.21528 17.6131 2.16856 18.0764 2.16856C18.5396 2.16856 19.0031 2.21528 19.4631 2.30864L22.8153 2.98934C22.9274 3.01207 22.984 3.08786 23.0077 3.1309C23.0314 3.17403 23.065 3.26223 23.0241 3.36926L22.1804 5.5738C22.059 5.89099 21.7492 6.10411 21.4096 6.10411H14.7432C14.4036 6.10411 14.0938 5.89099 13.9724 5.5738L13.1288 3.36926C13.0878 3.26231 13.1215 3.17403 13.1452 3.1309ZM25.7401 17.5458C25.7853 18.2601 25.5404 18.9407 25.0506 19.4625C24.6528 19.8862 24.1403 20.1554 23.5784 20.2416C24.2206 19.4466 24.8511 18.3961 25.0291 17.1968C25.2713 17.1844 25.5001 17.1219 25.7069 17.0209L25.7401 17.5458ZM10.9497 19.4625C10.4598 18.9407 10.215 18.26 10.2602 17.5458L10.2934 17.021C10.5002 17.1219 10.729 17.1844 10.9712 17.1969C11.1491 18.3961 11.7797 19.4466 12.4219 20.2416C11.86 20.1554 11.3474 19.8862 10.9497 19.4625ZM18.6367 32.1534L18.5635 32.2981C18.5531 32.3187 18.5409 32.3378 18.5288 32.3567C18.5249 32.3627 18.5217 32.3694 18.5178 32.3753C18.5104 32.386 18.5017 32.3952 18.4938 32.4053C18.4658 32.4412 18.4353 32.4746 18.401 32.503C18.3938 32.5089 18.3857 32.5137 18.3783 32.5193C18.2721 32.5992 18.142 32.6444 18.0001 32.6444C17.7571 32.6444 17.5465 32.5149 17.4367 32.2982L15.0111 27.5058H20.9892L18.6367 32.1534ZM21.5805 26.3376H14.4198L13.9686 25.4462C14.519 24.9858 14.8902 24.2341 14.8902 23.4849V22.4771C15.6548 22.9688 16.6116 23.3502 17.9937 23.3657C17.9959 23.3657 17.998 23.3657 18.0002 23.3657C18.0024 23.3657 18.0045 23.3657 18.0067 23.3657C19.3888 23.3502 20.3456 22.9688 21.1102 22.4772V23.485C21.1102 24.2343 21.4813 24.9859 22.0317 25.4463L21.5805 26.3376ZM21.5754 20.6359C20.4953 21.5661 19.6626 22.1774 18.0002 22.1975C16.3378 22.1774 15.5051 21.566 14.4249 20.6359C12.991 19.4013 12.1184 17.8935 12.0906 16.6025C12.0838 16.2849 11.8244 16.0309 11.5067 16.0309H11.0621C10.7359 16.0309 10.4706 15.7656 10.4706 15.4394V14.1367C10.4706 14.1094 10.4731 14.0829 10.4767 14.0565C10.4784 14.0476 10.4796 14.0387 10.4809 14.0297C10.5314 13.7545 10.7726 13.5452 11.0622 13.5452H11.505C11.8276 13.5452 12.0891 13.2837 12.0891 12.9612V12.2369C12.1241 10.2599 13.8067 9.33607 14.3396 9.19271C16.0525 10.9401 18.1577 12.529 23.9201 13.062C23.9678 13.3365 24.2073 13.5452 24.4955 13.5452H24.9383C25.2278 13.5452 25.469 13.7545 25.5196 14.0297C25.5209 14.0387 25.5221 14.0477 25.5238 14.0565C25.5274 14.0828 25.5299 14.1094 25.5299 14.1367V15.4394C25.5299 15.7655 25.2646 16.0309 24.9384 16.0309H24.4938C24.176 16.0309 23.9167 16.2848 23.9099 16.6025C23.882 17.8934 23.0093 19.4012 21.5754 20.6359Z" stroke="white" stroke-width="0.3"/>
</svg>
